<?xml version="1.0" encoding="UTF-8"?>
<svg id="Layer_2" data-name="Layer 2" xmlns="http://www.w3.org/2000/svg" viewBox="0 0 242.33 334.4">
  <defs>
    <style>
      .cls-1 {
        stroke: #4d4d4d;
      }

      .cls-1, .cls-2 {
        fill: none;
        stroke-miterlimit: 10;
        stroke-width: .2px;
      }

      .cls-2 {
        opacity: 0;
        stroke: #000;
      }
    </style>
  </defs>
  <g id="Layer_1-2" data-name="Layer 1">
    <g>
      <path class="cls-1" d="M113.66,260.25c.76,3.7,3.31,6.18,5.15,2.93,1.4-2.48,2.61-5.61,3.83-8.63,3.7-9.19,7.73-17.21,13.19-19.79,2.09-.99,4.22-1.42,6.33-1.93,2.56-.62,5.14-.86,7.69-1.61.09-.03.17-.06.26-.08-1.48,1.84-2.91,3.98-4.26,6.43-3.08,5.58-5.83,12.01-8.35,18.93-1.2,3.29-1.85,6.96-.96,11.28.76,3.7,3.31,6.18,5.15,2.93,1.4-2.48,2.61-5.61,3.83-8.63,3.7-9.19,7.73-17.21,13.19-19.79.9-.42,1.8-.74,2.71-1-.31,3.95-.44,7.97-.48,11.98-.08,8.19-.25,16.45.06,24.56.55,14.64,2.35,28.63,4.1,42.6.45,3.59,1.48,5.82,3.11,6.3,2.78.81,4.79-4.67,4.22-11.54-.34-4.14-.89-8.16-1.3-12.27-.71-7.09-1.43-14.17-2.07-21.3-.59-6.59-.54-13.35-.56-20.11-.02-6.83.2-13.55.77-20.3.05-.59.12-1.15.19-1.71,1.09-.2,2.19-.42,3.28-.75,2.4-.71,4.79-1.77,7.17-2.86,2.53-1.16,4.94-3.18,7.07-6.81.1-.16.3,0,.45.01l.14-.63c0,.09.02.18.03.27-.79,3.93-1.67,7.79-2.33,11.83-1.05,6.53-1.37,13.38-1.44,20.21-.08,8.19-.25,16.45.06,24.56.55,14.64,2.35,28.63,4.1,42.6.45,3.59,1.48,5.82,3.11,6.3,2.78.81,4.79-4.67,4.22-11.54-.34-4.14-.89-8.16-1.3-12.27-.71-7.09-1.43-14.17-2.07-21.3-.59-6.59-.54-13.35-.56-20.11-.01-4.4.09-8.75.31-13.09.98,4.19,2.68,5.38,4.38,4.46,2.42-1.3,3.36-7.68,2.58-11.97-.97-5.33-1.86-10.77-2.64-16.28.45-1.21.91-2.41,1.37-3.59,2.61-6.55,5.39-12.71,7.99-19.27,3.66-9.22,6.27-19.63,6.72-32.22.04-1.23.21-1.59.74-1.56,1.12.07,1.21.33.94,3.01-.15,1.47-.2,3-.38,4.46-.79,6.47-1.61,12.92-2.43,19.37-.93,7.43-1.56,14.99-1.26,22.62.53,13.38,2.3,25.89,4.72,37.89.95,4.69,2.73,6.03,4.52,5.07,2.42-1.3,3.36-7.68,2.58-11.97-1.15-6.28-2.18-12.71-3.06-19.24-1.3-9.73-1.56-19.76-.21-29.84,1.36-10.2,2.92-20.28,3.38-30.93.02-.54.43-1.26.71-1.48.6-.47,1.24-.56,1.85-.98,3.22-2.25,5.13-7.81,6.24-14.6,1.2-7.34,2.05-14.95,3.03-22.46.75-5.71,1.37-11.52,3.02-16.42.67-2,1.37-4.01,1.89-6.21,1.22-5.12.03-11.25-2.45-12.27-1.78-.73-3.24,1.38-4.34,4.42-2.59,7.19-4.32,15.35-5.26,24.39-.57,5.47-1.31,10.87-1.99,16.49-1.19-3.16-2.29-6.04-3.35-8.98-.17-.47-.27-1.21-.28-1.85-.18-9.34-.53-18.68-.45-28.04.1-10.55.77-21.09,2.32-31.25,1.3-8.54,3.15-16.19,6.79-20.95,2.54-3.32,4.98-7.06,7.42-10.78,1.39-2.12,2.56-4.85,3.46-8.16,1.91-6.99,2.18-14.63,1.79-22.3-.21-4.15-1.18-6.11-2.95-6.75-1.36-.49-2.58.63-3.57,3.52-.94,2.76-.95,5.85-.97,8.7-.04,5.13-.77,9.01-2.71,11.69-1.39,1.92-2.79,3.81-4.17,5.77-2.52,3.56-5,7.15-7.04,12.36-3.6,9.21-5.38,20.18-6.54,31.79-.41,4.11-.64,8.31-.92,12.48-.04-.02-.09-.05-.13-.07-.68-.28-1.3-.15-1.89.29-.16-.94-.16-2.05.08-3.43.2-1.16.02-2.62.05-3.94.18-8.14-.31-15.99-1.68-23.36-.97-5.22-2.16-10.12-3.49-14.82v-.05c2.67-3.43,5.23-7.35,7.79-11.24,1.39-2.12,2.56-4.85,3.46-8.16,1.91-6.99,2.18-14.63,1.79-22.3-.21-4.15-1.18-6.11-2.95-6.75-1.36-.49-2.58.63-3.57,3.52-.94,2.76-.95,5.85-.97,8.7-.04,5.13-.77,9.01-2.71,11.69-1.39,1.92-2.79,3.81-4.17,5.77-1.16,1.63-2.3,3.28-3.41,5.08-.5-.68-1.06-1.11-1.67-1.25-1.48-.34-2.69,1.03-3.54,3.94-.9,3.11-.91,6.56-.15,9.43.01.04.02.09.04.13-2.48,8.09-3.88,17.23-4.84,26.82-.48,4.76-.7,9.63-1.05,14.44-.04.54-.18,1.04-.27,1.57-.18-.19-.39-.32-.55-.58-.94-1.48-1.49-3.2-.98-6.17.2-1.16.02-2.62.05-3.94.18-8.14-.31-15.99-1.68-23.36-1.78-9.56-4.28-18.07-7.05-26.17-.71-2.08-1.68-3.37-2.85-3.64-1.48-.34-2.69,1.03-3.54,3.94-.9,3.11-.91,6.56-.15,9.43,1.39,5.24,3.03,10.09,4.5,15.21,2.2,7.65,3.4,16.06,3.11,25.59-.02.8-.12,1.35-.29,1.78-1.58-4.62-3.14-9.31-4.64-14.09-2.58-8.23-5.27-16.19-8.39-23.39-3.81-8.78-8.73-12.67-13.68-16.45-1.42-1.09-2.93.16-3.97,3.28-.96,2.9-1.07,6.44-.3,9.49.87,3.47,2.35,5.07,3.92,6.06,4.21,2.66,7.75,7.6,10.46,15.39,3.21,9.24,6.43,18.47,9.5,27.95.2.61.4,1.21.59,1.82-1.14,3.52-1.75,7.86-1.24,12.68.03.27-.45,1.27-.57,1.18-.65-.51-1.28-1.19-1.89-1.93-2.7-3.29-4.85-8.16-6.87-13.24-1.93-4.84-3.7-10.03-5.47-15.18-1.71-4.97-3.39-10.02-5-15.17-2.58-8.23-5.27-16.19-8.39-23.39-3.81-8.78-8.73-12.67-13.68-16.45-1.42-1.09-2.93.16-3.97,3.28-.96,2.9-1.07,6.44-.3,9.49.87,3.47,2.35,5.07,3.92,6.06,4.21,2.66,7.75,7.6,10.46,15.39,3.21,9.24,6.43,18.47,9.5,27.95,3.21,9.89,6.48,19.62,10.45,27.95,3.12,6.55,6.7,11.32,10.86,13.82.03.02.06.04.09.06,3,1.81,3.23,6.43.47,8.46-1.66,1.22-3.33,2.86-5.09,4.83-3.5,3.93-7.19,5.69-11.03,6.11-4.32.47-8.65,1.2-12.97,2.18-4.76,1.08-8.96,5.75-12.73,12.73-1.16,2.14-2.38,4.16-3.38,6.65-2.17,5.38-1.43,12.54,1.23,14.56,1.68,1.27,3.1-.44,4.42-2.81,1.65-2.96,3.22-6.26,4.98-8.79,2.44-3.51,5.19-4.94,8.02-5.29,3.45-.43,6.91-.79,10.36-1.33-.94,1.37-1.85,2.89-2.74,4.53-1.16,2.14-2.38,4.16-3.38,6.65-2.17,5.38-1.43,12.54,1.23,14.56,1.68,1.27,3.1-.44,4.42-2.81,1.65-2.96,3.22-6.26,4.98-8.79,2.44-3.51,5.19-4.94,8.02-5.29.16-.02.32-.04.48-.06-.3,1.07-.59,2.15-.86,3.25-1.85,7.51-3.69,15.06-5.26,22.87-1.72,8.55-4.38,13.53-8.38,14.65-3.88,1.09-7.76,2.21-11.64,3.34-3.39,1-6.81,1.24-10.16,3.4-3.66,2.36-6.95,6.32-9.94,11.74-3.08,5.58-5.83,12.01-8.35,18.93-1.2,3.29-1.85,6.96-.96,11.28ZM164.56,221.55l.71-3.15-.56,2.94-1.64,1.81s0,0-.01,0c.36-.5.71-1.03,1.06-1.62.1-.16.3,0,.45.01ZM200.15,135.72c.55.38,1.1.75,1.64,1.12-.06.49-.12.97-.18,1.46-.16,0-.32,0-.48.01-.33-.88-.66-1.75-.98-2.59ZM178.39,149.62l-.41,2.13c-2.11.25-4.22.56-6.33.94,1.45-1.39,3-2.37,4.53-3.05.67-.3,1.43-.2,2.2-.02ZM200.77,63.15c2.05,7.43,3.17,15.56,2.88,24.74-.04,1.41-.31,2.08-.79,2.57-.74.77-1.51,1.4-2.23,2.23-1.15,1.31-2.28,3.17-3.19,5.46.17-9.81.85-19.58,2.28-29.02.31-2.06.66-4.06,1.05-5.99ZM177.6,219.08c-.86.24-1.73.5-2.59.75,2.47-6.1,5.06-11.92,7.5-18.08,3.66-9.22,6.27-19.63,6.72-32.22.04-1.23.21-1.59.74-1.56,1.12.07,1.21.33.94,3.01-.15,1.47-.2,3-.38,4.46-.77,6.32-1.58,12.62-2.37,18.93-.76,3.32-1.51,6.66-2.19,10.06-1.72,8.55-4.38,13.53-8.38,14.65Z"/>
      <ellipse class="cls-2" cx="35.81" cy="138.46" rx="35.71" ry="29.5"/>
    </g>
  </g>
</svg>