<?xml version="1.0" encoding="UTF-8"?>
<svg id="Layer_2" data-name="Layer 2" xmlns="http://www.w3.org/2000/svg" viewBox="0 0 127.9 228.15">
  <defs>
    <style>
      .cls-1 {
        fill: #d1d3d4;
        opacity: 0;
        stroke-width: 0px;
      }

      .cls-2 {
        fill: none;
        stroke: #4d4d4d;
        stroke-miterlimit: 10;
        stroke-width: .2px;
      }
    </style>
  </defs>
  <g id="Layer_1-2" data-name="Layer 1">
    <g>
      <path class="cls-2" d="M118.78,146.66c-.38-.16-.99-.19-1.55-.28.71-.65,1.37-1.26,2.04-1.86.43-.39.62-.8-.37-1.03-.9-.21-1.5.07-1.92.44-.65.59-1.37,1.17-1.94,1.77-.55.58-1.38.79-2.75.61.29-.19.57-.37.84-.55.5-.34.79-.71-.01-1.02-.82-.31-1.53-.09-2.03.25-1.01.71-2,1.42-2.94,2.15-.63.5-2.14.55-2.84.05-.73-.53-1.75-.7-3-.57-1.16.13-2.33.27-3.47.44-3.02.44-6.21.3-10.98-.13-3.53-.32-7.38-1.08-11.52-1.71.38-.55.82-1.24,1.27-1.96,1.01.13,1.75.23,2.49.32,3.36.4,6.64.86,9.51,1.09,2.68.21,4.38-.39,4.77-1.2.38-.77-.44-1.56-2.59-2-.72-.15-1.57-.25-2.44-.36-3.14-.4-6.84-.86-10.52-1.37-8.26-1.14-15.11-2.05-19.61-3.56-1.37-.46-3.1-.72-4.72-.96-3.28-.49-6.58-.85-9.91-1.08.42-.82.45-1.79.09-2.75,1.32.6,3.19.74,4.68.35,1.56-.41,2.13-1.3,1.37-2.18-.24-.28-.54-.55-.91-.79-2.46-1.64-4.83-3.25-7.19-4.83.61-.59.99-1.41,1.07-2.31.08-.9-.15-1.73-.62-2.42.39,0,.78,0,1.16-.04,2.12-.16,3.35-1.07,2.98-2.05-.14-.36.09-.49.74-.64,3.86-.9,7.18-2,12.04-2.44,2.66-.24,4.65-1.06,4.15-1.98-.5-.9-2.7-1.4-5.02-1.17-.33.03-.66.06-.98.12-2.93.51-5.83,1.03-8.71,1.55-.44.08-.87.18-1.3.28,1.69-.8,2.9-1.65,3.74-2.59.11-.12.51-.29.79-.32,2.67-.35,5.31-.92,8.04-.79,1.93.09,4.31-.49,5.08-1.28.78-.81-.4-1.58-2.33-1.81-2.13-.25-4.32-.17-6.71.17-.98.14-1.96.28-2.93.42-.29-.77-.14-1.46,1.15-2.28.85-.54,1.45-1.13,2-1.72,1.49.62,2.95,1.28,4.46,1.89.47.19.9.42,1.46.51,1.62.27,3.88-.45,5.58-1.83,1.7-1.38,2.13-3,1.2-3.95-.36-.37-.29-.77,0-1.3.89.19,1.93.36,3.11.52,3.74.5,7.97,1.32,12.33,2.05.74.12,1.48.27,2.25.34,2.24.22,4.1-.13,4.87-.86.52-.49.46-1.04-.1-1.5.16,0,.34-.04.53-.11,1.11-.42.89-1.33.57-2.15-.45-1.15-1.01-2.26-1.38-3.43-.34-1.1-.5-2.26-.81-3.56,1.81.66,3.31,1.18,4.74,1.75.84.33,1.78.66,2.25-.43.47-1.09-.43-1.56-1.23-1.98-.14-.07-.29-.14-.44-.2-.61-.23-1.22-.45-1.83-.68.55-.35,1.01-.74,1.31-1.2,1.84.58,3.12,1.3,3.82,2.25.68.92,1.41,1.8,4.07,1.5-.24.98-.48,1.87-.68,2.76-.32,1.42.71,1.91,3.69,1.73.57.64,1.14,1.29,1.71,1.94.36.4.89.74,1.9.54,1.02-.21.81-.64.48-1.03-.46-.55-1.03-1.08-1.4-1.64-.35-.53-.5-1.08-.77-1.7,1.79.31,3.28.56,4.76.84.87.16,1.79.32,2.26-.2.47-.52-.43-.74-1.23-.94-.14-.04-.29-.07-.44-.09-1.78-.32-3.57-.64-5.5-.98.72-2.05,1.21-4.12,2.94-6.04,2.04.25,3.03.16,3.66-.35,1.16-.94-.21-1.52-1.41-2.04,1.18-1.46,2.9-2.68,5.14-3.75,1.18-.57,1.09-1.33.06-1.79-1.04-.46-2.53-.4-3.74.17-2.1.98-3.81,2.08-5.13,3.35-1.94,1.86-3.74,3.82-7.98,4.82-.56-.23-1.16-.48-1.75-.74-1.23-.53-1.11-1.43.24-1.84,1.44-.44,2.17-1.06,1.9-1.89-.21-.68-1.27-1.27-2.72-1.34-.98-.05-2.04.07-2.99.22-1,.16-1.91.45-3.02.72-.51-.62-.92-1.15-1.39-1.67-.05-.06-.12-.11-.18-.16.41-1.85.92-3.67,1.67-5.44,2.04.52,3.03.33,3.66-.73,1.16-1.97-.21-3.18-1.41-4.27,1.18-3.06,2.9-5.61,5.14-7.85,1.18-1.19,1.09-2.8.06-3.75-1.04-.96-2.53-.84-3.74.35-2.1,2.05-3.81,4.35-5.13,7.01-1.94,3.9-3.74,7.99-7.98,10.11-.56-.49-1.16-1.01-1.75-1.54-1.23-1.11-1.11-2.98.24-3.86,1.44-.93,2.17-2.21,1.9-3.95-.21-1.42-1.27-2.66-2.72-2.81-.98-.1-2.04.14-2.99.45-1,.33-1.91.94-3.02,1.51-.51-1.29-.92-2.41-1.39-3.51-.54-1.29-1.46-2.2-2.87-2.46-2.59-.47-4.72,1.74-4.18,4.38.2,1,.59,1.96.9,2.95-.25.15-.41.25-.58.35-1.32.79-1.99,1.96-1.84,3.5.15,1.54,1.06,2.55,2.46,3.11.48.19,1.01.25,1.49.42.31.11.85.33.84.48-.02.35-.23.78-.5,1-.83.68-1.75,1.26-2.6,1.91-1.53,1.15-3.15,2.2-4.53,3.51-2.7,2.56-3.16,5.59-1.7,8.96.2.47.4.92.58,1.37-2.68.29-5.23.74-7.68,1.38-.19-.44-.34-.92-.53-1.39.17-.1.24-.17.31-.19,2.51-.7,3.7-2.23,3.37-4.24-.34-2.04-2.04-3.21-4.58-3.04-1.55.1-3.1.31-4.64.48-5.71.62-10.9,2.6-15.06,6.54-.92.87-1.86,1.67-2.78,2.46-.69-.17-1.43-.32-2.28-.43-1.71-.22-3.49.09-4.26.75-.79.68-.45,1.54,1.05,2.07.65.23,1.4.41,2.1.58,0,0,.02,0,.03,0-.93.77-2.01,1.2-3.54.85-.82-.19-1.73.06-2.58.2-.76.13-1.5.37-2.36.59-.22-.54-.44-1-.56-1.47-1.02-3.99-3.6-7-7.73-8.13-1.71-.47-3.39.18-4.24,1.65-.88,1.51-.59,3.39.82,4.55.61.51,1.35.89,2.09,1.25.87.42,1.43.91,1.57,1.92.13.95.55,1.88.95,2.77,1.29,2.84,2.74,5.6,4.27,8.33.39.69.29,1.12-.4,1.68-1.41,1.13-2.83,2.35-4.14,3.66-1.26,1.27-1.47,2.72-.58,4.12.81,1.27,2.52,1.81,4.58,1.5.28-.04.56-.06.84-.09-1.62,3.61-3.51,7.33-5.1,10.59-.14-1.54-.24-3.52-.64-5.42-.47-2.25-2.63-3.3-4.95-2.87-2.37.44-3.69,2.24-3.51,4.57.02.28.06.56.12.83.63,2.72.41,5.4-.98,7.95-.33.6-.55,1.26-.72,1.92-.8,3.16-.13,5.91,2.2,8.26.49.49.79,1.26.93,1.96.16.77.09,1.6.06,2.39-.12,3.26.95,5.9,3.89,8.31.8.66,1.47,1.88,2,2.98.82,1.68.94,3.41.82,5.25-.25,3.79,2.86,7.09,6.58,6.55.27-.04.58,0,.95-.01.71,2.26,1.32,4.46,1.97,6.61,1.92,6.31,2.63,11.86,1.97,16.93-.12.95.23,1.76,1.88,1.26,1.53-.46,1.85-1.41,1.97-2.34.36-2.92.3-5.64-.32-8.86-.59-3.06-1.48-6.36-2.8-10.11,1.58.48,2.73.81,3.88,1.15,1.18.36,2.26.44,2.46-.6.2-1.04-.72-1.82-1.88-2.24-1.79-.65-3.61-1.15-5.94-1.93-.43-1.51-.94-3.39-1.52-5.23-.69-2.2-1.32-4.34-1.9-6.38-.3-1.05-.91-2.1-1.38-3.51,5.64,3.65,9.22,1.9,10.62-1.74,1.35,2.94,3.55,5.98,6.73,9.27.04.16.11.48.18.8.79,3.84,1.34,8.13,2.47,13.21.51,2.33,1.19,4.75,2.4,7,1.09,2.04,1.71,3.9,2.1,6.01.3,1.66,1.37,2.84,2.86,2.92,1.6.09,3.15-.9,3.89-2.63.33-.77.66-1.02,1.35-.95,3.07.29,6.19.38,9.2.88,2.86.48,5.95,1.03,7.51,3.32,1.36,1.99,2.26,4.1,3.18,6.21.26.61.38,1.03.21,1.9-.37,1.95-.86,3.95-1.23,6.07-.56,3.18-2.78,5.89-2.04,9.21-.99.3-1.92.53-2.87.92-.69.29-1.22.99-1.11,1.92.12,1.01.79,1.12,1.55.92.53-.14,1.05-.41,1.56-.44,1.36-.1,2.81.56,3.81-1.13.05-.08.21-.03.3-.09.56-.33,1.1-.68,1.64-.99.26-.15.53-.38.8-.38,1.86,0,3.72.43,5.61,1.88,2.36,1.81,4.75,3.58,7.01,5.38.63.51,1.23,1.08,1.93,1.45,1.4.75,3.02.49,4.11-.53,1.06-.99,1.46-2.57.76-3.94-.38-.74-1-1.4-1.61-2.01-.82-.81-1.75-1.53-2.68-2.32,1.29-.81,2.54,0,3.75.07,3.13.16,6.31-.26,9.23,1.12,1.02.48,2.26-.28,2.72-1.26.51-1.06.3-2.03-.51-2.86-.2-.21-.5-.32-.75-.48,1.71-.04,3.15.22,4.62.28,1.14.04,2.33,0,3.41-.32.53-.15,1.17-.98,1.19-1.52.02-.54-.61-1.19-1.11-1.62-.38-.33-.99-.39-1.55-.59.71-1.36,1.37-2.63,2.04-3.9.43-.82.62-1.68-.37-2.16-.9-.44-1.5.14-1.92.92-.65,1.23-1.37,2.44-1.94,3.71-.55,1.22-1.36,1.65-2.76,1.29.3-.4.58-.78.85-1.16.51-.71.8-1.49-.02-2.13-.84-.66-1.59-.19-2.11.53-1.06,1.48-2.1,2.98-3.06,4.51-.65,1.04-2.26,1.15-3.07.11-.86-1.1-2.02-1.46-3.39-1.17-1.28.27-2.54.57-3.76.92-3.22.94-6.58.63-9.64.31-2.27-.24-4.23-1.48-5.89-2.71.07-1.28.13-2.83.18-4.42.36.27.64.47.93.64,1.33.76,3.04,1.4,5.07,1.57,1.89.16,3.31-1.16,3.49-2.85.17-1.62-.97-3.28-2.77-4.01-.61-.25-1.26-.38-1.87-.52-2.23-.49-3.83-1.22-4.93-2.38-2.47-2.6-2.13-6.52-5.05-10.69-.89-1.27-2.11-2.15-3.58-2.8-5-2.19-11.29-2.66-16.01-2.43-.88.04-1.79.03-2.7.04-1.48-3.21-3.58-10.07-3.25-11.72.73.58,1.48,1.18,2.25,1.78,1.34,1.04,2.72,2.14,4.1,3.09,2.58,1.79,4.63,2.15,4.98.99.33-1.11-1.42-3.39-4.37-5.6-.93-.7-1.91-1.39-2.83-1.99-6.87-4.49-12.42-8.76-15.11-12.43-1.88-2.57-2.05-5.01-1.99-8.21.12-.22.21-.46.3-.6.17-.26.36-.34.67-.69.52-.59,1.19-2.58,1.02-4.65-.06-.75.01-1.07.32-1.44,1.2-1.46,3.81-2.83,6.54-3.93,3.16.18,6.33.3,9.46.57,3.17.28,6.31.67,9.19,1.49,2.51.71,4.75,1.19,7.94,1.83.92.18,1.39.34,1.18.7-.47.82-1.04,1.63-1.3,2.45-.38,1.24-3.32,2.25-1.93,3.52-1.43.11-2.45.23-3.5.38-.77.11-1.27.37-1.11.71.18.37.87.41,1.7.33.58-.06,1.21-.16,1.89-.16,1.81-.01,4.23.36,6.06-.25.09-.03.38,0,.56-.01,1.05-.09,2.12-.18,3.23-.26.54-.04,1.1-.11,1.66-.08,3.82.19,7.63.6,10.61,1.48,3.74,1.1,7.28,2.04,9.96,3.15.75.31,1.45.62,2.21.77,1.53.31,3.04.22,4.14-.28,1.07-.49,1.5-1.24.89-1.89-.33-.35-.89-.67-1.45-.96-.73-.39-1.56-.74-2.37-1.11,1.32-.39,2.42,0,3.57.04,2.97.08,5.97-.12,8.82.54,1,.23,2.23-.13,2.7-.6.51-.51.3-.97-.49-1.37-.2-.1-.48-.16-.73-.23,1.66-.02,3.12.11,4.59.13,1.14.02,2.33,0,3.41-.15.53-.07,1.17-.47,1.19-.73.02-.26-.61-.57-1.11-.77ZM38.04,114.71c1.13-.89,2.56-.55,3.85-.53-1.22.17-2.43.33-3.85.53ZM32.33,127.34c.03-.28.21-.66.39-.75.75-.37,1.84-.81,2.96-1.18.32.26.63.52.95.79-.16.06-.47.18-.78.3-1.67.64-2.98,1.34-3.69,2.14.06-.42.13-.85.17-1.29ZM88.38,93.44c-.07-.06-.13-.12-.2-.18.29,0,.58-.02.92-.05.26.66.52,1.33.78,1.99-.32-.61-.83-1.19-1.5-1.76ZM91.06,97.92s-.03-.01-.04-.02c-.71-.23-.88-.47-.81-.82.08-.43.04-.85-.08-1.26.19.47.37.94.56,1.41.1.25.22.48.37.68ZM68.99,84.8c1.1-.79,2.19-1.6,3.3-2.37,2.47-1.7,5-3.34,5.94-6.46,1.84,1.21,3.12,2.73,3.82,4.71.42,1.2.87,2.36,1.78,2.92.22.61,1,1.03,2.17,1.29-.07.6-.14,1.19-.21,1.76-.1.04-.21.07-.32.11-1.53.55-3.15,1.05-4.53,1.68-2.7,1.22-3.49,2.62-2.26,4.18.58.74,1.37,1.44,2.07,2.16.34.35.64.72.97,1.08-.1.05-.2.1-.3.15-2.98-.47-5.86-.88-8.34-1.34-1-.18-1.46-.57-1.81-1,.01-.18.03-.36.02-.54,2.39-.35,3.83-1.03,3.69-1.95-.14-.94-1.78-1.49-4.32-1.41-.09,0-.18,0-.27.01-.5-1.08-1.12-2.19-1.76-3.26-.44-.74-.29-1.26.36-1.73ZM61.33,93.93c.68.22,1.45.37,2,.65.03.35.05.7.06,1.05-.13.1-.25.21-.38.31-1.47-.53-2.98-1.02-4.49-1.56.6-.14,1.2-.27,1.79-.41.3-.07.81-.1,1.01-.04ZM43.24,91.88c.31-.14.82-.22,1.01-.08.92.66,2.12,1.03,2.35,2.28.01.06.03.11.05.17-1.2.36-2.36.73-3.45,1.1-1.38.48-2.57.8-3.99.61-.26-.03-.54-.03-.84-.02-.18-.42-.39-.86-.64-1.31,1.78-.96,3.62-1.88,5.51-2.76Z"/>
      <ellipse class="cls-1" cx="16.68" cy="40.01" rx="13.41" ry="40.01"/>
    </g>
  </g>
</svg>