<?xml version="1.0" encoding="UTF-8"?>
<svg id="Layer_2" data-name="Layer 2" xmlns="http://www.w3.org/2000/svg" viewBox="0 0 119.99 161.51">
  <defs>
    <style>
      .cls-1 {
        fill: none;
        stroke: #4d4d4d;
        stroke-miterlimit: 10;
        stroke-width: .2px;
      }
    </style>
  </defs>
  <g id="Layer_1-2" data-name="Layer 1">
    <path class="cls-1" d="M118.78,90.3c-.38-.16-.99-.19-1.55-.28.71-.65,1.37-1.26,2.04-1.86.43-.39.62-.8-.37-1.03-.9-.21-1.5.07-1.92.44-.65.59-1.37,1.17-1.94,1.77-.55.58-1.38.79-2.75.61.29-.19.57-.37.84-.55.5-.34.79-.71-.01-1.02-.82-.31-1.53-.09-2.03.25-1.01.71-2,1.42-2.94,2.15-.63.5-2.14.55-2.84.05-.73-.53-1.75-.7-3-.57-1.16.13-2.33.27-3.47.44-3.02.44-6.46.24-11.48-.26-3.71-.37-7.77-1.18-12.13-1.87.35-.56.78-1.25,1.23-1.97,1.07.14,1.85.25,2.63.35,3.54.45,7,.95,10.05,1.23,2.85.25,4.67-.31,5.1-1.11.41-.77-.49-1.57-2.79-2.05-.77-.16-1.68-.28-2.6-.4-3.34-.45-7.23-.96-11.09-1.51-8.68-1.25-16.44-2.39-20.47-3.77-1.22-.42-2.8-.64-4.28-.85-3-.42-6.05-.72-9.13-.89.43-.81.52-1.77.23-2.71,1.21.57,2.96.68,4.39.28,1.5-.42,2.14-1.3,1.5-2.15-.2-.27-.46-.53-.79-.77-2.21-1.57-4.42-3.15-6.67-4.7.62-.58,1.04-1.4,1.15-2.29.11-.89-.11-1.72-.57-2.41.39,0,.78,0,1.16-.04,2.12-.16,3.35-1.07,2.98-2.05-.14-.36.09-.49.74-.64,3.86-.9,7.18-2,12.04-2.44,2.66-.24,4.65-1.06,4.15-1.98-.5-.9-2.7-1.4-5.02-1.17-.33.03-.66.06-.98.12-2.93.51-5.83,1.03-8.71,1.55-.44.08-.87.18-1.3.28,1.69-.8,2.9-1.65,3.74-2.59.11-.12.51-.29.79-.32,2.67-.35,5.31-.92,8.04-.79,1.93.09,4.31-.49,5.08-1.28.78-.81-.4-1.58-2.33-1.81-2.13-.25-4.32-.17-6.71.17-.98.14-1.96.28-2.93.42-.29-.77-.14-1.46,1.15-2.28.85-.54,1.45-1.13,2-1.72,1.49.62,2.95,1.28,4.46,1.89.47.19.9.42,1.46.51,1.62.27,3.88-.45,5.58-1.83,1.7-1.38,2.13-3,1.2-3.95-.36-.37-.29-.77,0-1.3.89.19,1.93.36,3.11.52,3.74.5,7.97,1.32,12.33,2.05.74.12,1.48.27,2.25.34,2.24.22,4.1-.13,4.87-.86.52-.49.46-1.04-.1-1.5.16,0,.34-.04.53-.11,1.11-.42.89-1.33.57-2.15-.45-1.15-1.01-2.26-1.38-3.43-.34-1.1-.5-2.26-.81-3.56,1.81.66,3.31,1.18,4.74,1.75.84.33,1.78.66,2.25-.43.47-1.09-.43-1.56-1.23-1.98-.14-.07-.29-.14-.44-.2-.61-.23-1.22-.45-1.83-.68.55-.35,1.01-.74,1.31-1.2,1.84.58,3.12,1.3,3.82,2.25.68.92,1.41,1.8,4.07,1.5-.24.98-.48,1.87-.68,2.76-.32,1.42.71,1.91,3.69,1.73.57.64,1.14,1.29,1.71,1.94.36.4.89.74,1.9.54,1.02-.21.81-.64.48-1.03-.46-.55-1.03-1.08-1.4-1.64-.35-.53-.5-1.08-.77-1.7,1.79.31,3.28.56,4.76.84.87.16,1.79.32,2.26-.2.47-.52-.43-.74-1.23-.94-.14-.04-.29-.07-.44-.09-1.78-.32-3.57-.64-5.5-.98.72-2.05,1.21-4.12,2.94-6.04,2.04.25,3.03.16,3.66-.35,1.16-.94-.21-1.52-1.41-2.04,1.18-1.46,2.9-2.68,5.14-3.75,1.18-.57,1.09-1.33.06-1.79-1.04-.46-2.53-.4-3.74.17-2.1.98-3.81,2.08-5.13,3.35-1.94,1.86-3.74,3.82-7.98,4.82-.56-.23-1.16-.48-1.75-.74-1.23-.53-1.11-1.43.24-1.84,1.44-.44,2.17-1.06,1.9-1.89-.21-.68-1.27-1.27-2.72-1.34-.98-.05-2.04.07-2.99.22-1,.16-1.91.45-3.02.72-.51-.62-.92-1.15-1.39-1.67-.05-.06-.12-.11-.18-.16.41-1.85.92-3.67,1.67-5.44,2.04.52,3.03.33,3.66-.73,1.16-1.97-.21-3.18-1.41-4.27,1.18-3.06,2.9-5.61,5.14-7.85,1.18-1.19,1.09-2.8.06-3.75-1.04-.96-2.53-.84-3.74.35-2.1,2.05-3.81,4.35-5.13,7.01-1.94,3.9-3.74,7.99-7.98,10.11-.56-.49-1.16-1.01-1.75-1.54-1.23-1.11-1.11-2.98.24-3.86,1.44-.93,2.17-2.21,1.9-3.95-.21-1.42-1.27-2.66-2.72-2.81-.98-.1-2.04.14-2.99.45-1,.33-1.91.94-3.02,1.51-.51-1.29-.92-2.41-1.39-3.51-.54-1.29-1.46-2.2-2.87-2.46-2.59-.47-4.72,1.74-4.18,4.38.2,1,.59,1.96.9,2.95-.25.15-.41.25-.58.35-1.32.79-1.99,1.96-1.84,3.5.15,1.54,1.06,2.55,2.46,3.11.48.19,1.01.25,1.49.42.31.11.85.33.84.48-.02.35-.23.78-.5,1-.83.68-1.75,1.26-2.6,1.91-1.53,1.15-3.15,2.2-4.53,3.51-2.7,2.56-3.16,5.59-1.7,8.96.2.47.4.92.58,1.37-2.68.29-5.23.74-7.68,1.38-.19-.44-.34-.92-.53-1.39.17-.1.24-.17.31-.19,2.51-.7,3.7-2.23,3.37-4.24-.34-2.04-2.04-3.21-4.58-3.04-1.55.1-3.1.31-4.64.48-5.71.62-10.9,2.6-15.06,6.54-.92.87-1.86,1.67-2.78,2.46-.69-.17-1.43-.32-2.28-.43-1.71-.22-3.49.09-4.26.75-.79.68-.45,1.54,1.05,2.07.65.23,1.4.41,2.1.58,0,0,.02,0,.03,0-.93.77-2.01,1.2-3.54.85-.82-.19-1.73.06-2.58.2-.76.13-1.5.37-2.36.59-.22-.54-.44-1-.56-1.47-1.02-3.99-3.6-7-7.73-8.13-1.71-.47-3.39.18-4.24,1.65-.88,1.51-.59,3.39.82,4.55.61.51,1.35.89,2.09,1.25.87.42,1.43.91,1.57,1.92.13.95.55,1.88.95,2.77,1.29,2.84,2.74,5.6,4.27,8.33.39.69.29,1.12-.4,1.68-1.41,1.13-2.83,2.35-4.14,3.66-1.26,1.27-1.47,2.72-.58,4.12.81,1.27,2.52,1.81,4.58,1.5.28-.04.56-.06.84-.09-1.62,3.61-3.51,7.33-5.1,10.59-.14-1.54-.24-3.52-.64-5.42-.47-2.25-2.63-3.3-4.95-2.87-2.37.44-3.69,2.24-3.51,4.57.02.28.06.56.12.83.63,2.72.41,5.4-.98,7.95-.33.6-.55,1.26-.72,1.92-.8,3.16-.13,5.91,2.2,8.26.49.49.79,1.26.93,1.96.16.77.09,1.6.06,2.39-.12,3.26,1.08,5.86,3.62,7.97.69.57,1.12,1.61,1.37,2.51.39,1.38.04,2.71-.56,4.05-1.22,2.75.45,5.24,3.43,5.29.22,0,.44.06.72.1-.19,1.7-.42,3.32-.54,4.95-.37,4.77-.72,9.55-1.04,14.33-.06.89.22,1.76,1.35,1.72,1.04-.04,1.21-.85,1.25-1.71.13-2.71.22-5.43.43-8.13.2-2.57.52-5.13.83-8.04.96.58,1.66.98,2.35,1.41.71.44,1.44.65,2.02-.12.58-.78.22-1.49-.48-1.95-1.09-.71-2.24-1.31-3.71-2.16.22-1.16.54-2.61.77-4.07.28-1.75.57-3.51.71-5.28.07-.91-.17-1.85-.32-3.15,4.69,3.46,9,1.88,10.93-1.65.88,2.84,1.58,5.58,2.81,8.47-.04.15-.14.43-.24.72-1.24,3.43-3.83,7.14-5.45,11.59-.74,2.05-1.13,4.19-.59,6.35.48,1.96,1.07,3.9,1.65,5.83.46,1.53,1.73,2.51,3.24,2.59,1.62.08,2.97-.74,3.54-2.32.25-.7.57-.94,1.27-.88,3.09.27,6.21.36,9.28.82,2.9.44,5.76,1.12,8.37,2.68,2.28,1.36,4.73,2.44,7.15,3.54.7.32,1.01.6.87,1.38-.31,1.77-.7,3.54-.82,5.32-.18,2.68-2.32,5.11-.95,7.83-1.1.34-2.1.59-3.05.96-.7.27-1.1.86-.82,1.63.3.84,1.01.94,1.78.74.54-.14,1.06-.39,1.6-.44,1.45-.15,3.08.37,4.1-1.23.05-.07.23-.05.34-.1.62-.34,1.23-.7,1.85-1.04.3-.16.61-.4.93-.43,2.16-.17,4.24.1,5.99,1.53,2.19,1.79,4.35,3.62,6.53,5.42.61.51,1.19,1.08,1.88,1.45,1.38.75,3.01.49,4.12-.53,1.08-.99,1.51-2.58.89-3.95-.33-.74-.89-1.41-1.45-2.02-.73-.81-1.56-1.54-2.37-2.33,1.32-.82,2.42.01,3.57.08,2.97.17,5.97-.24,8.82,1.13,1,.48,2.23-.28,2.7-1.25.51-1.06.3-2.03-.49-2.86-.2-.21-.48-.33-.73-.48,1.66-.03,3.12.22,4.59.28,1.14.04,2.33,0,3.41-.32.53-.15,1.17-.98,1.19-1.52.02-.54-.61-1.19-1.11-1.62-.38-.33-.99-.39-1.55-.59.71-1.36,1.37-2.63,2.04-3.9.43-.82.62-1.68-.37-2.16-.9-.44-1.5.14-1.92.92-.65,1.23-1.37,2.44-1.94,3.71-.55,1.22-1.38,1.65-2.75,1.28.29-.4.57-.78.84-1.16.5-.71.79-1.49-.01-2.13-.82-.66-1.53-.19-2.03.53-1.01,1.48-2,2.97-2.94,4.5-.63,1.04-2.14,1.14-2.84.1-.73-1.11-1.75-1.47-3-1.19-1.16.27-2.33.56-3.47.91-3.02.93-6.13.61-9.15.29-2.23-.24-4.38-1.26-6.74-1.99.19-1.23.42-2.74.67-4.32.57.13.99.23,1.42.31,1.92.36,3.82.87,5.75,1.04,1.8.16,3.27-1.16,3.62-2.86.34-1.63-.5-3.3-2.1-4.04-.54-.25-1.13-.39-1.71-.53-2.09-.5-4.21-.93-6.29-1.46-4.68-1.2-9.05-2.42-13.46-5.39-1.34-.9-3.03-1.38-4.62-1.84-5.4-1.53-10.57-2.39-15.34-2.18-.89.04-1.79.03-2.7.04-.22-2.95,1.73-8.98,2.95-10.45.36.51.74,1.03,1.14,1.55.7.91,1.42,1.88,2.25,2.72,1.55,1.58,3.42,1.9,4.37.87.91-.99.43-3.01-1.21-4.96-.52-.61-1.08-1.22-1.65-1.75-4.17-3.93-7.08-7.67-8.41-11.06-.93-2.38-1.08-4.81-1.02-8.02.12-.22.21-.46.3-.6.17-.26.36-.34.67-.69.52-.59,1.19-2.58,1.02-4.65-.06-.75.01-1.07.32-1.44,1.2-1.46,3.73-2.85,6.25-4,2.89.11,5.8.16,8.66.37,2.9.21,5.76.53,8.37,1.28,2.28.65,4.47,1.12,7.9,1.82.99.2,1.48.37,1.27.73-.47.82-1.02,1.63-1.2,2.48-.26,1.27-3.12,2.3-1.31,3.68-1.45.1-2.52.21-3.47.39-.7.13-1.1.41-.82.78.3.4.98.44,1.79.35.57-.06,1.18-.17,1.87-.17,1.83,0,4.36.39,6.05-.26.08-.03.39,0,.56-.01,1.04-.09,2.1-.19,3.2-.27.53-.04,1.09-.11,1.67-.08,3.92.22,7.87.66,11.01,1.58,3.93,1.15,7.55,2.27,10.34,3.23.78.27,1.48.56,2.2.75,1.46.37,3.02.23,4.13-.25,1.08-.47,1.51-1.23.89-1.89-.33-.35-.89-.67-1.45-.96-.73-.39-1.56-.74-2.37-1.11,1.32-.39,2.42,0,3.57.04,2.97.08,5.97-.12,8.82.54,1,.23,2.23-.13,2.7-.6.51-.51.3-.97-.49-1.37-.2-.1-.48-.16-.73-.23,1.66-.02,3.12.11,4.59.13,1.14.02,2.33,0,3.41-.15.53-.07,1.17-.47,1.19-.73.02-.26-.61-.57-1.11-.77ZM38.04,58.36c1.13-.89,2.56-.55,3.85-.53-1.22.17-2.43.33-3.85.53ZM32.33,70.99c.03-.28.21-.66.39-.75.75-.37,1.83-.82,2.93-1.19.31.26.61.52.92.78-.16.06-.46.18-.77.3-1.63.65-2.94,1.35-3.64,2.15.06-.42.13-.85.17-1.29ZM88.38,37.09c-.07-.06-.13-.12-.2-.18.29,0,.58-.02.92-.05.26.66.52,1.33.78,1.99-.32-.61-.83-1.19-1.5-1.76ZM91.06,41.57s-.03-.01-.04-.02c-.71-.23-.88-.47-.81-.82.08-.43.04-.85-.08-1.26.19.47.37.94.56,1.41.1.25.22.48.37.68ZM68.99,28.45c1.1-.79,2.19-1.6,3.3-2.37,2.47-1.7,5-3.34,5.94-6.46,1.84,1.21,3.12,2.73,3.82,4.71.42,1.2.87,2.36,1.78,2.92.22.61,1,1.03,2.17,1.29-.07.6-.14,1.19-.21,1.76-.1.04-.21.07-.32.11-1.53.55-3.15,1.05-4.53,1.68-2.7,1.22-3.49,2.62-2.26,4.18.58.74,1.37,1.44,2.07,2.16.34.35.64.72.97,1.08-.1.05-.2.1-.3.15-2.98-.47-5.86-.88-8.34-1.34-1-.18-1.46-.57-1.81-1,.01-.18.03-.36.02-.54,2.39-.35,3.83-1.03,3.69-1.95-.14-.94-1.78-1.49-4.32-1.41-.09,0-.18,0-.27.01-.5-1.08-1.12-2.19-1.76-3.26-.44-.74-.29-1.26.36-1.73ZM61.33,37.57c.68.22,1.45.37,2,.65.03.35.05.7.06,1.05-.13.1-.25.21-.38.31-1.47-.53-2.98-1.02-4.49-1.56.6-.14,1.2-.27,1.79-.41.3-.07.81-.1,1.01-.04ZM43.24,35.53c.31-.14.82-.22,1.01-.08.92.66,2.12,1.03,2.35,2.28.01.06.03.11.05.17-1.2.36-2.36.73-3.45,1.1-1.38.48-2.57.8-3.99.61-.26-.03-.54-.03-.84-.02-.18-.42-.39-.86-.64-1.31,1.78-.96,3.62-1.88,5.51-2.76Z"/>
  </g>
</svg>